<svg width="32" height="32" viewBox="0 0 32 32" fill="none" xmlns="http://www.w3.org/2000/svg">
<path d="M6.81586 4.29118C6.91915 5.82333 7.17738 7.32106 7.59054 8.74992L5.52472 10.8157C4.81889 8.74992 4.3713 6.56359 4.21636 4.29118H6.81586ZM23.79 24.9838C25.2533 25.397 26.751 25.6552 28.266 25.7585V28.3236C25.9936 28.1686 23.8072 27.7211 21.7242 27.0324L23.79 24.9838ZM8.46852 0.848145H2.4432C1.49636 0.848145 0.72168 1.62283 0.72168 2.56966C0.72168 18.7347 13.8224 31.8355 29.9875 31.8355C30.9343 31.8355 31.709 31.0608 31.709 30.114V24.1059C31.709 23.159 30.9343 22.3843 29.9875 22.3843C27.8528 22.3843 25.7698 22.04 23.8417 21.4031C23.6695 21.3342 23.4802 21.317 23.308 21.317C22.8604 21.317 22.43 21.4892 22.0857 21.8162L18.2984 25.6036C13.4265 23.1074 9.43257 19.1307 6.95358 14.2588L10.7409 10.4714C11.2229 9.98941 11.3607 9.31802 11.1713 8.71549C10.5343 6.78739 10.19 4.72156 10.19 2.56966C10.19 1.62283 9.41535 0.848145 8.46852 0.848145Z" fill="black"/>
</svg>
