<svg width="35" height="34" viewBox="0 0 35 34" fill="none" xmlns="http://www.w3.org/2000/svg">
<path d="M20.9611 7.35114V3.89017H14.0392V7.35114H20.9611ZM3.65628 10.8121V29.8474H31.344V10.8121H3.65628ZM31.344 7.35114C33.2649 7.35114 34.805 8.89127 34.805 10.8121V29.8474C34.805 31.7683 33.2649 33.3084 31.344 33.3084H3.65628C1.73544 33.3084 0.195312 31.7683 0.195312 29.8474L0.212617 10.8121C0.212617 8.89127 1.73544 7.35114 3.65628 7.35114H10.5782V3.89017C10.5782 1.96933 12.1184 0.429199 14.0392 0.429199H20.9611C22.882 0.429199 24.4221 1.96933 24.4221 3.89017V7.35114H31.344Z" fill="black"/>
</svg>
