<svg width="64" height="64" viewBox="0 0 64 64" fill="none" xmlns="http://www.w3.org/2000/svg">
<path d="M50.6667 8H13.3333C10.4 8 8 10.4 8 13.3333V50.6667C8 53.6 10.4 56 13.3333 56H50.6667C53.6 56 56 53.6 56 50.6667V13.3333C56 10.4 53.6 8 50.6667 8ZM50.6667 50.6667H13.3333V13.3333H50.6667V50.6667Z" fill="black"/>
<path d="M29.9998 20.5864H16.6665V24.5864H29.9998V20.5864Z" fill="black"/>
<path d="M47.9998 42H34.6665V46H47.9998V42Z" fill="black"/>
<path d="M47.9998 35.3335H34.6665V39.3335H47.9998V35.3335Z" fill="black"/>
<path d="M21.3333 48.0002H25.3333V42.6668H30.6667V38.6668H25.3333V33.3335H21.3333V38.6668H16V42.6668H21.3333V48.0002Z" fill="black"/>
<path d="M37.5732 29.2L41.3332 25.44L45.0932 29.2L47.9199 26.3733L44.1599 22.5867L47.9199 18.8267L45.0932 16L41.3332 19.76L37.5732 16L34.7466 18.8267L38.5066 22.5867L34.7466 26.3733L37.5732 29.2Z" fill="black"/>
</svg>
