<svg width="33" height="27" viewBox="0 0 33 27" fill="none" xmlns="http://www.w3.org/2000/svg">
<path d="M2.65627 10.8028C1.21997 10.8028 0.0605469 11.9623 0.0605469 13.3986C0.0605469 14.8349 1.21997 15.9943 2.65627 15.9943C4.09258 15.9943 5.252 14.8349 5.252 13.3986C5.252 11.9623 4.09258 10.8028 2.65627 10.8028ZM2.65627 0.419922C1.21997 0.419922 0.0605469 1.57935 0.0605469 3.01565C0.0605469 4.45195 1.21997 5.61138 2.65627 5.61138C4.09258 5.61138 5.252 4.45195 5.252 3.01565C5.252 1.57935 4.09258 0.419922 2.65627 0.419922ZM2.65627 21.1857C1.21997 21.1857 0.0605469 22.3625 0.0605469 23.7815C0.0605469 25.2005 1.23728 26.3772 2.65627 26.3772C4.07527 26.3772 5.252 25.2005 5.252 23.7815C5.252 22.3625 4.09258 21.1857 2.65627 21.1857ZM7.84773 25.512H32.0745V22.051H7.84773V25.512ZM7.84773 15.129H32.0745V11.6681H7.84773V15.129ZM7.84773 1.28516V4.74613H32.0745V1.28516H7.84773Z" fill="black"/>
</svg>
